<svg width="24" height="24" viewBox="0 0 24 24" fill="none"
    xmlns="http://www.w3.org/2000/svg">
    <path d="M10.1146 8.01675C11.156 7.10553 12.8444 7.10553 13.8858 8.01675C14.9272 8.92797 14.9272 10.4054 13.8858 11.3166C13.7046 11.4752 13.5037 11.6062 13.2901 11.7096C12.6272 12.0304 12.0002 12.597 12.0002 13.3333V14M20 12C20 16.4183 16.4183 20 12 20C7.58172 20 4 16.4183 4 12C4 7.58172 7.58172 4 12 4C16.4183 4 20 7.58172 20 12ZM12 16.6667H12.0067V16.6733H12V16.6667Z" stroke="#0D2430" stroke-width="1.5" stroke-linecap="round" stroke-linejoin="round"/>
</svg>
