<svg width="24" height="24" viewBox="0 0 24 24" fill="none"
    xmlns="http://www.w3.org/2000/svg">
    <path d="M15.6 4.8H18.1C19.2046 4.8 20.1 5.69543 20.1 6.8V7.5M15.6 19.2H18.1C19.2046 19.2 20.1 18.3046 20.1 17.2V16.5M5.32533 18.7276L10.3253 20.2276C11.6086 20.6126 12.9 19.6517 12.9 18.3119V5.68806C12.9 4.34834 11.6086 3.38744 10.3253 3.77241L5.32533 5.27241C4.47936 5.5262 3.90002 6.30484 3.90002 7.18806V16.8119C3.90002 17.6952 4.47936 18.4738 5.32533 18.7276Z" stroke="#0D2430" stroke-width="1.5" stroke-linecap="round" stroke-linejoin="round"/>
    <path d="M9.30105 12H9.30005" stroke="#0D2430" stroke-width="1.5" stroke-linecap="round" stroke-linejoin="round"/>
    <path d="M20.1 12H15.6M15.6 12L17.4 10.2M15.6 12L17.4 13.8" stroke="#0D2430" stroke-width="1.5" stroke-linecap="round" stroke-linejoin="round"/>
</svg>
