<svg width="56" height="56" viewBox="0 0 56 56" fill="none"
    xmlns="http://www.w3.org/2000/svg">
    <circle cx="28" cy="28" r="28" fill="#E8E8E8"/>
    <path d="M27.4951 24C30.8756 24 33.6161 21.3137 33.6161 18C33.6161 14.6863 30.8756 12 27.4951 12C24.1146 12 21.3742 14.6863 21.3742 18C21.3742 21.3137 24.1146 24 27.4951 24Z" fill="white"/>
    <path d="M14.1621 36.9871C13.7644 38.0031 14.1196 39.142 14.9966 39.8092C18.4495 42.4361 22.7861 44 27.4954 44C32.2094 44 36.5501 42.4329 40.0047 39.8011C40.8813 39.1334 41.2357 37.9943 40.8374 36.9785C38.7782 31.7271 33.5838 28 27.5014 28C21.4157 28 16.2189 31.7311 14.1621 36.9871Z" fill="white"/>
</svg>
