<svg width="18" height="18" viewBox="0 0 18 18" fill="none"
    xmlns="http://www.w3.org/2000/svg">
    <path d="M7.80614 11.4526L8.2199 11.8663L8.56406 11.3931L12.0478 6.60296C12.129 6.49129 12.2854 6.46661 12.397 6.54782C12.5087 6.62903 12.5334 6.78538 12.4522 6.89704L8.45218 12.397C8.40918 12.4562 8.34245 12.4935 8.26956 12.4992C8.19666 12.505 8.12492 12.4785 8.07322 12.4268L7.71967 12.7803L8.07322 12.4268L5.57322 9.92678C5.47559 9.82915 5.47559 9.67085 5.57322 9.57322C5.67085 9.47559 5.82915 9.47559 5.92678 9.57322L7.80614 11.4526ZM15.0104 15.0104C15.8594 14.1614 16.1805 12.9852 15.9756 11.8894C16.8954 11.2594 17.5 10.2006 17.5 9C17.5 7.79939 16.8954 6.74063 15.9756 6.1106C16.1805 5.01475 15.8594 3.83854 15.0104 2.98957C14.1614 2.1406 12.9852 1.8195 11.8894 2.02434C11.2594 1.10464 10.2006 0.5 9 0.5C7.79938 0.5 6.74062 1.10465 6.11059 2.02437C5.01475 1.81954 3.83855 2.14064 2.98959 2.9896C2.14063 3.83856 1.81953 5.01476 2.02436 6.1106C1.10465 6.74063 0.5 7.79939 0.5 9C0.5 10.2006 1.10465 11.2594 2.02436 11.8894C1.81952 12.9852 2.14062 14.1615 2.98959 15.0104C3.83855 15.8594 5.01476 16.1805 6.1106 15.9757C6.74064 16.8954 7.79939 17.5 9 17.5C10.2006 17.5 11.2594 16.8953 11.8894 15.9756C12.9852 16.1805 14.1614 15.8594 15.0104 15.0104Z" fill="#4C986C" stroke="white"/>
</svg>
