<svg width="24" height="24" viewBox="0 0 24 24" fill="none"
    xmlns="http://www.w3.org/2000/svg">
    <path d="M21 12.25C21 11.0074 19.9926 10 18.75 10H15C15 11.6569 13.6569 13 12 13C10.3431 13 9 11.6569 9 10H5.25C4.00736 10 3 11.0074 3 12.25M21 12.25V18.25C21 19.4926 19.9926 20.5 18.75 20.5H5.25C4.00736 20.5 3 19.4926 3 18.25V12.25M21 12.25V9.25M3 12.25V9.25M21 9.25C21 8.00736 19.9926 7 18.75 7H5.25C4.00736 7 3 8.00736 3 9.25M21 9.25V6.25C21 5.00736 19.9926 4 18.75 4H5.25C4.00736 4 3 5.00736 3 6.25V9.25" stroke="#0D2430" stroke-width="1.5" stroke-linecap="round" stroke-linejoin="round"/>
</svg>
