<svg width="362" height="250" viewBox="0 0 362 250" fill="none" xmlns="http://www.w3.org/2000/svg">
<path fill-rule="evenodd" clip-rule="evenodd" d="M55.3383 128.4C79.6144 71.2559 60.8751 -0.26394 140.577 0.000732434C204.617 0.213483 235.189 15.2416 280.118 40.1803C323.597 64.3148 324.827 133.364 263.71 195.6C202.593 257.836 156.754 256.058 134.285 241.833C111.816 227.606 37.9918 169.235 55.3383 128.4Z" fill="#F4F5F7"/>
<path fill-rule="evenodd" clip-rule="evenodd" d="M24.9463 222.965H64.9877V130.268H24.9463V222.965Z" fill="#EAECF4"/>
<path fill-rule="evenodd" clip-rule="evenodd" d="M128.583 222.965H168.624V192.457H128.583V222.965Z" fill="#D8DBEA"/>
<path fill-rule="evenodd" clip-rule="evenodd" d="M42.6118 222.965H82.6533V167.816H42.6118V222.965Z" fill="#D8DBEA"/>
<path fill-rule="evenodd" clip-rule="evenodd" d="M60.2769 222.965H101.496V145.522H60.2769V222.965Z" fill="white"/>
<path fill-rule="evenodd" clip-rule="evenodd" d="M60.2769 224.138H101.496V145.522H60.2769V224.138Z" stroke="black" stroke-width="2"/>
<path fill-rule="evenodd" clip-rule="evenodd" d="M112.095 224.138H146.248V160.776H112.095V224.138Z" fill="white"/>
<path fill-rule="evenodd" clip-rule="evenodd" d="M112.095 224.138H146.248V160.776H112.095V224.138Z" stroke="black" stroke-width="2"/>
<path fill-rule="evenodd" clip-rule="evenodd" d="M88.5415 224.138H122.695V177.203H88.5415V224.138Z" fill="white"/>
<path fill-rule="evenodd" clip-rule="evenodd" d="M88.5415 224.138H122.695V177.203H88.5415V224.138Z" stroke="black" stroke-width="1.723"/>
<path fill-rule="evenodd" clip-rule="evenodd" d="M81.4756 178.376H128.583V172.51H81.4756V178.376Z" fill="white"/>
<path fill-rule="evenodd" clip-rule="evenodd" d="M81.4756 178.376H128.583V172.51H81.4756V178.376Z" stroke="black" stroke-width="2"/>
<path fill-rule="evenodd" clip-rule="evenodd" d="M95.6079 191.284H102.674V184.243H95.6079V191.284Z" fill="white"/>
<path fill-rule="evenodd" clip-rule="evenodd" d="M95.6079 191.284H102.674V184.243H95.6079V191.284Z" stroke="black" stroke-width="2"/>
<path fill-rule="evenodd" clip-rule="evenodd" d="M108.562 191.284H115.629V184.243H108.562V191.284Z" fill="white"/>
<path fill-rule="evenodd" clip-rule="evenodd" d="M108.562 191.284H115.629V184.243H108.562V191.284Z" stroke="black" stroke-width="2"/>
<path fill-rule="evenodd" clip-rule="evenodd" d="M95.6079 204.191H102.674V197.15H95.6079V204.191Z" fill="white"/>
<path fill-rule="evenodd" clip-rule="evenodd" d="M95.6079 204.191H102.674V197.15H95.6079V204.191Z" stroke="black" stroke-width="2"/>
<path fill-rule="evenodd" clip-rule="evenodd" d="M108.562 204.191H115.629V197.15H108.562V204.191Z" fill="white"/>
<path fill-rule="evenodd" clip-rule="evenodd" d="M108.562 204.191H115.629V197.15H108.562V204.191Z" stroke="black" stroke-width="2"/>
<path fill-rule="evenodd" clip-rule="evenodd" d="M95.6079 215.924H102.674V208.884H95.6079V215.924Z" fill="white"/>
<path fill-rule="evenodd" clip-rule="evenodd" d="M95.6079 215.924H102.674V208.884H95.6079V215.924Z" stroke="black" stroke-width="2"/>
<path fill-rule="evenodd" clip-rule="evenodd" d="M108.562 215.924H115.629V208.884H108.562V215.924Z" fill="white"/>
<path fill-rule="evenodd" clip-rule="evenodd" d="M108.562 215.924H115.629V208.884H108.562V215.924Z" stroke="black" stroke-width="2"/>
<path d="M60.2769 159.016H83.8307" stroke="black" stroke-width="2"/>
<path d="M72.6426 150.216V158.429" stroke="black" stroke-width="2"/>
<path d="M92.0747 159.016H101.496" stroke="black" stroke-width="2"/>
<path d="M60.2769 167.229H75.0513H93.2522" stroke="black" stroke-width="2"/>
<path fill-rule="evenodd" clip-rule="evenodd" d="M74.9003 172.51L75.0958 166.643L74.9003 172.51Z" fill="white"/>
<path d="M74.8997 172.51L75.0964 166.643" stroke="black" stroke-width="2"/>
<path d="M87.364 187.177H80.2979" stroke="black" stroke-width="2"/>
<path d="M60.2769 195.39H69.1905H88.5414" stroke="black" stroke-width="2"/>
<path d="M69.1098 199.497V194.804" stroke="black" stroke-width="2"/>
<path d="M70.876 212.991H87.3636" stroke="black" stroke-width="2"/>
<path d="M138.593 163.123V224.138" stroke="black" stroke-width="2"/>
<path d="M143.893 184.83H139.182" stroke="black" stroke-width="2"/>
<path d="M132.116 211.818H139.182" stroke="black" stroke-width="2"/>
<path d="M126.816 163.123V172.51" stroke="black" stroke-width="2"/>
<path d="M126.816 222.965V178.376" stroke="black" stroke-width="2"/>
<path d="M133.294 190.697H127.405" stroke="black" stroke-width="2"/>
<path d="M131.527 142.002V160.776" stroke="black" stroke-width="2"/>
<path fill-rule="evenodd" clip-rule="evenodd" d="M251.399 220.634H291.403V128.352H251.399V220.634Z" fill="#EAECF4"/>
<path fill-rule="evenodd" clip-rule="evenodd" d="M278.461 220.634H298.463V149.379H278.461V220.634Z" fill="#D8DBEA"/>
<path fill-rule="evenodd" clip-rule="evenodd" d="M299.639 224.138H334.936V196.103H299.639V224.138Z" fill="#D8DBEA"/>
<path fill-rule="evenodd" clip-rule="evenodd" d="M299.639 197.271H341.996V187.926H299.639V197.271Z" fill="#EAECF4"/>
<path fill-rule="evenodd" clip-rule="evenodd" d="M212.573 220.634H252.576V156.387H212.573V220.634Z" fill="#D8DBEA"/>
<path fill-rule="evenodd" clip-rule="evenodd" d="M200.807 224.138H298.463V190.263H200.807V224.138Z" fill="white"/>
<path fill-rule="evenodd" clip-rule="evenodd" d="M200.807 224.138H298.463V190.263H200.807V224.138Z" stroke="black" stroke-width="2"/>
<path fill-rule="evenodd" clip-rule="evenodd" d="M192.571 190.263H306.699V180.918H192.571V190.263Z" fill="white"/>
<path fill-rule="evenodd" clip-rule="evenodd" d="M192.571 190.263H306.699V180.918H192.571V190.263Z" stroke="black" stroke-width="2"/>
<path d="M200.807 207.2H223.162" stroke="black" stroke-width="2"/>
<path d="M276.108 207.2H297.286" stroke="black" stroke-width="2"/>
<path d="M232.574 206.032H264.342" stroke="black" stroke-width="2"/>
<path d="M240.222 203.112V219.465" stroke="black" stroke-width="2"/>
<path d="M266.695 215.377H231.398" stroke="black" stroke-width="2"/>
<path d="M281.402 197.271V215.961" stroke="black" stroke-width="2"/>
<path d="M1 223.884C5.35267 224.09 5.11414 224.079 361.153 223.884" stroke="black" stroke-width="2"/>
<path fill-rule="evenodd" clip-rule="evenodd" d="M212.947 234.377C212.947 236.477 199.685 238.179 183.325 238.179C166.965 238.179 153.704 236.477 153.704 234.377C153.704 232.279 166.965 230.577 183.325 230.577C199.685 230.577 212.947 232.279 212.947 234.377Z" fill="#D8DBEA"/>
<path fill-rule="evenodd" clip-rule="evenodd" d="M182.149 140.287C161.008 140.287 143.869 123.503 143.869 102.799C143.869 82.0955 161.008 65.3127 182.149 65.3127C203.288 65.3127 220.427 82.0955 220.427 102.799C220.427 123.503 203.288 140.287 182.149 140.287ZM182.149 23.6602C138.756 22.4554 102.584 55.9283 101.353 98.4238C101.319 99.6313 101.314 100.842 101.337 102.049C101.337 167.694 176.194 228.424 179.341 230.923C180.932 232.257 183.279 232.257 184.87 230.923C188.187 228.008 262.959 161.197 262.959 102.049C263.775 59.5454 229.253 24.4415 185.85 23.6414C184.617 23.6199 183.382 23.6253 182.149 23.6602Z" fill="#DC7600"/>
<path fill-rule="evenodd" clip-rule="evenodd" d="M182.149 140.287C161.008 140.287 143.869 123.503 143.869 102.799C143.869 82.0955 161.008 65.3127 182.149 65.3127C203.288 65.3127 220.427 82.0955 220.427 102.799C220.427 123.503 203.288 140.287 182.149 140.287ZM182.149 24.7656C138.756 23.5621 115.479 58.4912 114.251 100.985C114.215 102.194 114.211 103.404 114.233 104.613C114.233 170.257 176.194 228.424 179.341 230.923C180.932 232.257 183.279 232.257 184.87 230.923C188.187 228.008 262.959 161.197 262.959 102.049C263.775 59.5454 229.253 25.5468 185.85 24.7481C184.617 24.7266 183.382 24.7306 182.149 24.7656Z" fill="#FF8900"/>
<path fill-rule="evenodd" clip-rule="evenodd" d="M220.427 102.799C220.427 124.246 201.869 141.631 178.977 141.631C156.085 141.631 137.525 124.246 137.525 102.799C137.525 81.3534 156.085 63.9681 178.977 63.9681C201.869 63.9681 220.427 81.3534 220.427 102.799Z" fill="#DC7600"/>
<path fill-rule="evenodd" clip-rule="evenodd" d="M220.427 102.8C220.427 123.503 203.289 140.286 182.148 140.286C161.007 140.286 143.869 123.503 143.869 102.8C143.869 82.0957 161.007 65.3129 182.148 65.3129C203.289 65.3129 220.427 82.0957 220.427 102.8Z" fill="#F9F9F9"/>
</svg>
