<svg width="250" height="258" viewBox="0 0 250 258" fill="none" xmlns="http://www.w3.org/2000/svg">
<path fill-rule="evenodd" clip-rule="evenodd" d="M2.51771 140.267C25.898 85.2316 7.85019 16.3509 84.6108 16.6058C146.288 16.8107 175.731 31.2842 219.003 55.3027C260.877 78.5467 262.062 145.048 203.2 204.987C144.338 264.927 100.191 263.214 78.5509 249.514C56.9115 235.813 -14.1887 179.596 2.51771 140.267Z" fill="#F4F5F7"/>
<path fill-rule="evenodd" clip-rule="evenodd" d="M197.003 224.188H60.1496C51.3076 224.188 44.1392 216.988 44.1392 208.106V123.244C44.1392 115.459 50.422 109.148 58.172 109.148H206.662V214.486C206.662 219.844 202.338 224.188 197.003 224.188Z" fill="white"/>
<path fill-rule="evenodd" clip-rule="evenodd" d="M197.003 224.188H60.1496C51.3076 224.188 44.1392 216.988 44.1392 208.106V123.244C44.1392 115.459 50.422 109.148 58.172 109.148H206.662V214.486C206.662 219.844 202.338 224.188 197.003 224.188Z" stroke="black" stroke-width="2"/>
<path fill-rule="evenodd" clip-rule="evenodd" d="M247.73 78.7033C235.013 91.7247 202.363 125.755 191.799 136.778L96.0835 107.556L172.982 5.91321C172.982 5.91321 217.462 61.7353 247.73 78.7033Z" fill="white"/>
<path fill-rule="evenodd" clip-rule="evenodd" d="M248.268 77.6725C218.521 60.9987 174.267 5.69623 173.823 5.14629L172.988 4.099L94.9678 107.216L97.1909 107.894L172.975 7.72713C175.848 11.2612 185.769 23.3456 198.221 36.7754C211.496 51.1019 230.388 69.8623 245.901 78.9978C233.089 92.1486 204.115 122.353 190.62 136.417L192.978 137.137C207.222 122.278 236.545 91.7412 248.464 79.5245L249.562 78.3973L248.268 77.6725Z" fill="black"/>
<path fill-rule="evenodd" clip-rule="evenodd" d="M222.761 85.8515C214.867 93.2766 188.244 122.615 178.976 132.863L107.977 111.187L167.897 32.7953C167.897 32.7953 167.905 32.8094 167.933 32.8307C167.949 32.8479 167.985 32.8832 168.026 32.9318C170.652 35.8664 213.377 83.3404 222.761 85.8515Z" fill="white"/>
<path fill-rule="evenodd" clip-rule="evenodd" d="M223.067 84.7267L222.933 84.6852C221.246 84.1707 218.432 82.165 214.921 79.2051C208.905 74.1142 200.865 66.1877 192.986 58.0661C192.945 58.0176 192.891 57.9761 192.849 57.9266C183.198 47.9723 173.824 37.7369 168.791 32.0809L168.126 30.6959L106.859 110.846L109.082 111.525L167.932 34.5485C173.743 40.991 209.166 80.0442 220.75 86.2622C211.571 95.2815 187.226 122.097 177.817 132.509L180.134 133.217C190.554 121.699 215.82 93.8976 223.461 86.7111L225.011 85.2473L223.067 84.7267Z" fill="black"/>
<path fill-rule="evenodd" clip-rule="evenodd" d="M225.839 80.9412C220.004 76.9299 194.852 52.1274 172.354 29.1587L169.024 22.3159L163.731 29.2446L102.393 109.482L107.977 111.187L167.897 32.7959C167.897 32.7959 167.905 32.8101 167.933 32.8303C167.95 32.8475 167.985 32.8829 168.026 32.9324C169.359 34.2769 180.694 45.8669 192.849 57.926C192.891 57.9755 192.945 58.017 192.986 58.0665C200.785 65.7847 208.899 73.686 214.921 79.2055C218.363 82.3524 221.123 84.7301 222.76 85.8512C214.867 93.2773 188.244 122.615 178.977 132.862L184.776 134.633C201.543 116.108 220.279 95.7701 226.268 90.1273L231.73 84.9939L225.839 80.9412Z" fill="#FFD428"/>
<path fill-rule="evenodd" clip-rule="evenodd" d="M224.631 58.2876C215.246 73.3905 191.253 112.743 183.492 125.487L90.8174 116.043L143.601 2.55859C143.601 2.55859 193.987 47.8238 224.631 58.2876Z" fill="white"/>
<path fill-rule="evenodd" clip-rule="evenodd" d="M224.944 57.185C194.827 46.9031 144.74 2.0958 144.239 1.651L143.293 0.802856L89.7358 115.933L91.8885 116.152L143.91 4.31574C147.15 7.16952 158.326 16.9116 172.049 27.4563C186.683 38.7087 207.226 53.1444 223.008 58.9328C213.558 74.1792 192.267 109.106 182.35 125.37L184.633 125.604C195.098 108.423 216.651 73.1057 225.445 58.9379L226.255 57.6308L224.944 57.185Z" fill="black"/>
<path fill-rule="evenodd" clip-rule="evenodd" d="M203.013 70.1175C197.074 78.8557 177.785 112.482 171.077 124.222L102.332 117.215L143.604 29.5712C143.604 29.5712 143.613 29.5843 143.641 29.5985C143.66 29.6116 143.699 29.6389 143.744 29.6783C146.656 32.0014 193.988 69.5332 203.013 70.1175Z" fill="white"/>
<path fill-rule="evenodd" clip-rule="evenodd" d="M203.099 68.9683L202.969 68.9552C201.336 68.7884 198.412 67.4024 194.686 65.228C188.297 61.4856 179.565 55.3969 170.947 49.0879C170.901 49.0485 170.842 49.0201 170.796 48.9807C160.237 41.2473 149.885 33.1864 144.298 28.704L143.45 27.495L101.25 117.105L103.403 117.325L143.939 31.2616C150.374 36.3515 189.564 67.1719 201.244 70.9092C194.403 81.4438 176.764 112.181 169.955 124.107L172.198 124.336C179.742 111.141 198.053 79.2684 203.803 70.8122L204.967 69.0896L203.099 68.9683Z" fill="black"/>
<path fill-rule="evenodd" clip-rule="evenodd" d="M204.981 64.7603C198.944 62.0258 171.624 42.9754 147.052 25.1754L141.691 22.8944L139.174 26.9546L96.9253 116.665L102.332 117.216L143.604 29.5708C143.604 29.5708 143.613 29.584 143.641 29.5981C143.66 29.6112 143.698 29.6385 143.744 29.678C145.198 30.7182 157.581 39.7031 170.796 48.9812C170.842 49.0206 170.901 49.0489 170.947 49.0883C179.422 55.0233 188.217 61.0726 194.686 65.2284C198.382 67.5959 201.319 69.3539 203.013 70.1171C197.074 78.8554 177.785 112.482 171.077 124.222L176.693 124.794C188.831 103.569 202.46 80.2039 206.964 73.5653L211.074 67.5231L204.981 64.7603Z" fill="#FFD428"/>
<path fill-rule="evenodd" clip-rule="evenodd" d="M200.634 51.899C192.813 67.9097 172.897 109.582 166.458 123.077H73.3076L114.418 4.57153C114.418 4.57153 169.094 44.5811 200.634 51.899Z" fill="white"/>
<path fill-rule="evenodd" clip-rule="evenodd" d="M200.835 50.7681C169.839 43.5766 115.505 3.99364 114.961 3.60141L113.934 2.85132L72.2207 123.076H74.3844L114.9 6.29041C118.413 8.80756 130.51 17.3841 145.222 26.5034C160.912 36.2354 182.801 48.5401 199.084 52.707C191.213 68.8683 173.542 105.853 165.31 123.076H167.604C176.289 104.884 194.183 67.4834 201.51 52.4644L202.184 51.0795L200.835 50.7681Z" fill="black"/>
<path fill-rule="evenodd" clip-rule="evenodd" d="M180.315 65.8897C175.283 75.2052 159.473 110.69 153.978 123.076H84.8804L117.136 31.5018C117.136 31.5018 117.145 31.514 117.176 31.5251C117.195 31.5372 117.235 31.5595 117.286 31.5938C120.415 33.6146 171.279 66.2253 180.315 65.8897Z" fill="white"/>
<path fill-rule="evenodd" clip-rule="evenodd" d="M180.285 64.7357H180.154C178.513 64.7357 175.465 63.65 171.54 61.8617C164.807 58.7795 155.508 53.5956 146.299 48.1822C146.249 48.1478 146.189 48.1246 146.138 48.0902C134.856 41.4526 123.746 34.4693 117.739 30.5672L116.773 29.4471L83.7939 123.076H85.9576L117.638 33.1531C124.552 37.5738 166.638 64.3203 178.634 66.8596C172.887 78.0564 158.426 110.494 152.85 123.076H155.105C161.285 109.155 176.3 75.517 181.171 66.5018L182.156 64.666L180.285 64.7357Z" fill="black"/>
<path fill-rule="evenodd" clip-rule="evenodd" d="M181.734 60.349C175.454 58.2362 147.934 42.7584 121.697 27.5089L114.982 23.4236L112.465 29.3436L79.4463 123.077H84.8807L117.136 31.5019C117.136 31.5019 117.145 31.514 117.176 31.5252C117.195 31.5373 117.236 31.5595 117.286 31.5939C118.836 32.4835 132.061 40.1825 146.139 48.0898C146.19 48.1242 146.249 48.1474 146.3 48.1818C155.327 53.2383 164.687 58.3747 171.54 61.8613C175.454 63.8468 178.554 65.3014 180.315 65.8898C175.283 75.2053 159.473 110.69 153.978 123.077H159.624C169.567 100.682 180.778 76.0019 184.592 68.9255L188.074 62.4851L181.734 60.349Z" fill="#FFD428"/>
<path fill-rule="evenodd" clip-rule="evenodd" d="M44.1387 208.106V123.244C44.1387 115.459 50.4215 109.147 58.1715 109.147H102.393" fill="white"/>
<path d="M44.1387 208.106V123.244C44.1387 115.459 50.4215 109.147 58.1715 109.147H102.393" stroke="black" stroke-width="2"/>
<path fill-rule="evenodd" clip-rule="evenodd" d="M152.612 72.1639C152.612 78.1606 147.771 83.022 141.803 83.022C135.832 83.022 130.993 78.1606 130.993 72.1639C130.993 66.1672 135.832 61.3058 141.803 61.3058C147.771 61.3058 152.612 66.1672 152.612 72.1639Z" fill="#FFD428"/>
<path fill-rule="evenodd" clip-rule="evenodd" d="M145.921 110.838C145.921 123.853 135.418 134.402 122.463 134.402C109.508 134.402 99.0059 123.853 99.0059 110.838C99.0059 97.8249 109.508 87.2751 122.463 87.2751C135.418 87.2751 145.921 100.52 145.921 110.838Z" fill="#FFD428"/>
<path fill-rule="evenodd" clip-rule="evenodd" d="M145.921 110.838C145.921 123.853 135.418 134.402 122.463 134.402C109.508 134.402 99.0059 123.853 99.0059 110.838C99.0059 97.8249 109.508 87.2751 122.463 87.2751C135.418 87.2751 145.921 100.52 145.921 110.838Z" stroke="black" stroke-width="2"/>
<path fill-rule="evenodd" clip-rule="evenodd" d="M133.752 123.705L131.041 125.748L128.93 122.947C124.861 125.234 121.114 123.912 119.198 121.867L121.902 118.598C123.304 120.127 125.565 120.804 128.011 118.961C129.738 117.659 130.137 116.087 129.269 114.935C128.598 114.045 127.421 113.865 125.875 114.578L123.035 115.897C119.69 117.432 116.568 116.994 114.674 114.481C112.583 111.706 113.224 108.022 115.733 105.433L113.622 102.632L116.333 100.589L118.503 103.469C121.974 101.715 124.882 102.808 126.576 104.281L123.996 107.661C123.147 106.865 121.311 105.868 119.132 107.51C117.43 108.792 117.23 110.462 118.039 111.535C118.65 112.347 119.748 112.587 121.195 111.907L124.028 110.634C127.929 108.843 130.924 109.665 132.699 112.021C134.514 114.43 134.437 117.977 131.622 120.878L133.752 123.705Z" fill="black"/>
<path fill-rule="evenodd" clip-rule="evenodd" d="M182.659 233.791H61.5635C51.856 233.791 43.9868 225.899 43.9868 216.164V123.45H181.403C187.434 123.45 192.323 128.353 192.323 134.401V224.1C192.323 229.452 187.996 233.791 182.659 233.791Z" fill="white"/>
<path fill-rule="evenodd" clip-rule="evenodd" d="M182.659 233.791H61.5635C51.856 233.791 43.9868 225.899 43.9868 216.164V123.45H181.403C187.434 123.45 192.323 128.353 192.323 134.401V224.1C192.323 229.452 187.996 233.791 182.659 233.791Z" stroke="black" stroke-width="2"/>
<path fill-rule="evenodd" clip-rule="evenodd" d="M172.065 188.936H201.438C204.397 188.936 206.797 186.53 206.797 183.561V169.068C206.797 166.1 204.397 163.694 201.438 163.694H172.065C168.922 163.694 165.895 164.919 163.661 167.137C160.791 169.985 157.303 173.937 157.303 176.315C157.303 178.693 160.791 182.644 163.661 185.493C165.895 187.711 168.922 188.936 172.065 188.936Z" fill="white"/>
<path fill-rule="evenodd" clip-rule="evenodd" d="M172.065 188.936H201.438C204.397 188.936 206.797 186.53 206.797 183.561V169.068C206.797 166.1 204.397 163.694 201.438 163.694H172.065C168.922 163.694 165.895 164.919 163.661 167.137C160.791 169.985 157.303 173.937 157.303 176.315C157.303 178.693 160.791 182.644 163.661 185.493C165.895 187.711 168.922 188.936 172.065 188.936Z" stroke="black" stroke-width="2"/>
<path fill-rule="evenodd" clip-rule="evenodd" d="M183.764 172.706C183.764 176.33 180.834 179.268 177.22 179.268C173.606 179.268 170.676 176.33 170.676 172.706C170.676 169.081 173.606 166.143 177.22 166.143C180.834 166.143 183.764 169.081 183.764 172.706Z" fill="white"/>
<path fill-rule="evenodd" clip-rule="evenodd" d="M183.764 176.706C183.764 180.33 180.834 183.268 177.22 183.268C173.606 183.268 170.676 180.33 170.676 176.706C170.676 173.081 173.606 170.143 177.22 170.143C180.834 170.143 183.764 173.081 183.764 176.706Z" stroke="black" stroke-width="2"/>
<path fill-rule="evenodd" clip-rule="evenodd" d="M128.888 196.427C128.888 201.868 122.186 206.277 113.918 206.277C105.649 206.277 98.9468 201.868 98.9468 196.427C98.9468 190.987 105.649 192.434 113.918 192.434C122.186 192.434 128.888 190.987 128.888 196.427Z" fill="#BEC2CE"/>
<path fill-rule="evenodd" clip-rule="evenodd" d="M86.1442 183.963C86.1442 187.727 84.1155 190.779 81.6136 190.779C79.1117 190.779 77.083 187.727 77.083 183.963C77.083 180.199 79.1117 177.148 81.6136 177.148C84.1155 177.148 86.1442 180.199 86.1442 183.963Z" fill="#FF8900"/>
<path fill-rule="evenodd" clip-rule="evenodd" d="M150.753 190.165C150.753 193.59 148.724 196.366 146.222 196.366C143.72 196.366 141.691 193.59 141.691 190.165C141.691 186.74 143.72 183.963 146.222 183.963C148.724 183.963 150.753 186.74 150.753 190.165Z" fill="#FF8900"/>
<path fill-rule="evenodd" clip-rule="evenodd" d="M98.2256 167.809C98.2256 169.249 97.0607 170.417 95.625 170.417C94.1883 170.417 93.0234 169.249 93.0234 167.809C93.0234 166.368 94.1883 165.201 95.625 165.201C97.0607 165.201 98.2256 166.368 98.2256 167.809Z" fill="#242A37"/>
<path fill-rule="evenodd" clip-rule="evenodd" d="M135.842 165.789C135.842 167.23 134.678 168.397 133.242 168.397C131.805 168.397 130.641 167.23 130.641 165.789C130.641 164.348 131.805 163.181 133.242 163.181C134.678 163.181 135.842 164.348 135.842 165.789Z" fill="#242A37"/>
<path fill-rule="evenodd" clip-rule="evenodd" d="M67.9873 246.756C59.9742 253.15 48.3094 251.821 41.9323 243.785C35.5562 235.749 36.8822 224.05 44.8953 217.655C52.9084 211.261 64.5742 212.591 70.9503 220.627C77.3273 228.663 76.0004 240.362 67.9873 246.756Z" fill="#FFD428"/>
<path fill-rule="evenodd" clip-rule="evenodd" d="M65.944 245.177C58.6085 251.032 47.9284 249.814 42.0909 242.457C36.2525 235.1 37.4677 224.39 44.8032 218.535C52.1398 212.681 62.8189 213.899 68.6563 221.256C74.4948 228.613 73.2806 239.323 65.944 245.177Z" fill="#FFF097"/>
<path fill-rule="evenodd" clip-rule="evenodd" d="M63.9957 242.721C58.0123 247.496 49.3015 246.502 44.5403 240.502C39.7791 234.501 40.7698 225.767 46.7532 220.992C52.7356 216.217 61.4465 217.21 66.2076 223.21C70.9698 229.211 69.9781 237.946 63.9957 242.721Z" fill="#FFC352"/>
<path fill-rule="evenodd" clip-rule="evenodd" d="M63.3191 241.869C57.6679 246.379 49.4393 245.441 44.942 239.773C40.4446 234.105 41.3799 225.854 47.0321 221.343C52.6842 216.833 60.9108 217.772 65.4082 223.439C69.9066 229.108 68.9702 237.359 63.3191 241.869Z" fill="#FFF097"/>
<path fill-rule="evenodd" clip-rule="evenodd" d="M51.3616 238.001L52.1902 236.438C50.3135 235.081 50.1343 233.092 50.6628 231.782L52.7006 232.307C52.3009 233.273 52.463 234.447 53.803 235.162C54.7494 235.667 55.5428 235.509 55.8841 234.867C56.1479 234.37 55.9848 233.796 55.3424 233.247L54.1564 232.24C52.7691 231.05 52.321 229.536 53.0641 228.134C53.8866 226.585 55.6848 226.083 57.3752 226.666L58.2048 225.104L59.6898 225.896L58.8381 227.503C60.3503 228.704 60.458 230.26 60.1439 231.348L58.0799 230.903C58.2642 230.346 58.3357 229.296 57.1406 228.659C56.2083 228.161 55.4109 228.43 55.0938 229.029C54.8541 229.482 54.9729 230.032 55.579 230.544L56.7429 231.557C58.3608 232.947 58.6095 234.484 57.9128 235.799C57.2 237.143 55.579 237.873 53.6842 237.217L52.8476 238.794L51.3616 238.001Z" fill="#FFC64A"/>
<path fill-rule="evenodd" clip-rule="evenodd" d="M55.7926 222.296C55.7926 235.224 45.343 245.703 32.452 245.703C19.5619 245.703 9.11133 235.224 9.11133 222.296C9.11133 209.368 19.5619 198.889 32.452 198.889C45.343 198.889 55.7926 209.368 55.7926 222.296Z" fill="#FFD428"/>
<path fill-rule="evenodd" clip-rule="evenodd" d="M52.6405 223.077C52.6405 234.913 43.0739 244.507 31.2711 244.507C19.4704 244.507 9.90283 234.913 9.90283 223.077C9.90283 211.242 19.4704 201.647 31.2711 201.647C43.0739 201.647 52.6405 211.242 52.6405 223.077Z" fill="#FFF097"/>
<path fill-rule="evenodd" clip-rule="evenodd" d="M48.6997 223.077C48.6997 232.73 40.897 240.556 31.271 240.556C21.647 240.556 13.8433 232.73 13.8433 223.077C13.8433 213.424 21.647 205.599 31.271 205.599C40.897 205.599 48.6997 213.424 48.6997 223.077Z" fill="#FFC352"/>
<path fill-rule="evenodd" clip-rule="evenodd" d="M47.3331 223.077C47.3331 232.195 39.9633 239.587 30.8699 239.587C21.7785 239.587 14.4077 232.195 14.4077 223.077C14.4077 213.959 21.7785 206.567 30.8699 206.567C39.9633 206.567 47.3331 213.959 47.3331 223.077Z" fill="#FFF097"/>
<path fill-rule="evenodd" clip-rule="evenodd" d="M34.1621 231.857L33.2771 229.813C30.4722 230.604 28.3791 229.222 27.5052 227.672L29.6184 226.07C30.2537 227.225 31.5344 227.984 33.2872 227.22C34.5246 226.682 34.9917 225.774 34.6283 224.934C34.3484 224.284 33.6557 223.995 32.6126 224.199L30.6947 224.58C28.4385 225.017 26.599 224.274 25.8047 222.441C24.9277 220.415 25.8449 218.245 27.7428 217.033L26.8568 214.988L28.8009 214.142L29.71 216.243C32.076 215.691 33.6889 216.804 34.5115 217.968L32.4576 219.657C32.0529 219.038 31.0783 218.146 29.5157 218.826C28.2965 219.357 27.9351 220.355 28.2743 221.138C28.5321 221.731 29.1654 222.044 30.144 221.845L32.0508 221.492C34.6836 220.982 36.3891 221.941 37.1332 223.66C37.8943 225.418 37.3416 227.59 35.2122 228.948L36.1052 231.011L34.1621 231.857Z" fill="#FFC64A"/>
</svg>
