<svg width="40" height="36" viewBox="0 0 40 36" fill="none" xmlns="http://www.w3.org/2000/svg">
<path fill-rule="evenodd" clip-rule="evenodd" d="M29.42 14.1443C29.42 15.1432 30.22 15.9423 31.22 15.9423C32.22 15.9423 33.04 15.1432 33.04 14.1443C33.04 13.1454 32.22 12.3263 31.22 12.3263C30.22 12.3263 29.42 13.1454 29.42 14.1443ZM25.54 26.2109C24.12 27.6293 22.16 28.5083 20 28.5083C17.9 28.5083 15.94 27.6892 14.44 26.2109C12.96 24.7125 12.14 22.7547 12.14 20.657C12.12 18.5793 12.94 16.6215 14.42 15.1232C15.92 13.6249 17.9 12.8058 20 12.8058C22.1 12.8058 24.08 13.6249 25.56 15.1032C27.04 16.6015 27.86 18.5793 27.86 20.657C27.84 22.8346 26.96 24.7924 25.54 26.2109ZM20 15.8024C18.7 15.8024 17.48 16.3019 16.54 17.2408C15.62 18.1598 15.12 19.3785 15.14 20.6371V20.657C15.14 21.9556 15.64 23.1742 16.56 24.0932C17.48 25.0122 18.7 25.5116 20 25.5116C22.68 25.5116 24.84 23.3341 24.86 20.657C24.86 19.3585 24.36 18.1398 23.44 17.2209C22.52 16.3019 21.3 15.8024 20 15.8024Z" fill="#191A1C"/>
<path opacity="0.4" d="M30.88 6.47281L30.68 6.0333C30.14 4.89456 29.52 3.57603 29.14 2.81687C28.22 1.01887 26.64 0.0199778 24.7 0H15.28C13.34 0.0199778 11.78 1.01887 10.86 2.81687C10.46 3.61598 9.78 5.05438 9.22 6.23307L9.1 6.47281C9.04 6.63263 8.88 6.71254 8.72 6.71254C3.9 6.71254 0 10.6282 0 15.4229V27.2897C0 32.0844 3.9 36 8.72 36H31.28C36.08 36 40 32.0844 40 27.2897V15.4229C40 10.6282 36.08 6.71254 31.28 6.71254C31.1 6.71254 30.96 6.61265 30.88 6.47281Z" fill="#191A1C"/>
</svg>
