<svg width="41" height="41" viewBox="0 0 41 41" fill="none" xmlns="http://www.w3.org/2000/svg">
<g filter="url(#filter0_d_247_1638)">
<path fill-rule="evenodd" clip-rule="evenodd" d="M20.5 34C29.0604 34 36 27.0604 36 18.5C36 9.93959 29.0604 3 20.5 3C11.9396 3 5 9.93959 5 18.5C5 27.0604 11.9396 34 20.5 34Z" fill="#4C986C"/>
<path fill-rule="evenodd" clip-rule="evenodd" d="M20.5 34C29.0604 34 36 27.0604 36 18.5C36 9.93959 29.0604 3 20.5 3C11.9396 3 5 9.93959 5 18.5C5 27.0604 11.9396 34 20.5 34Z" stroke="white" stroke-width="2"/>
</g>
<path fill-rule="evenodd" clip-rule="evenodd" d="M21.0789 24.1579C24.4363 24.1579 27.1579 21.4363 27.1579 18.0789C27.1579 14.7216 24.4363 12 21.0789 12C17.7216 12 15 14.7216 15 18.0789C15 21.4363 17.7216 24.1579 21.0789 24.1579Z" fill="white"/>
<defs>
<filter id="filter0_d_247_1638" x="0" y="0" width="41" height="41" filterUnits="userSpaceOnUse" color-interpolation-filters="sRGB">
<feFlood flood-opacity="0" result="BackgroundImageFix"/>
<feColorMatrix in="SourceAlpha" type="matrix" values="0 0 0 0 0 0 0 0 0 0 0 0 0 0 0 0 0 0 127 0" result="hardAlpha"/>
<feOffset dy="2"/>
<feGaussianBlur stdDeviation="2"/>
<feColorMatrix type="matrix" values="0 0 0 0 0 0 0 0 0 0 0 0 0 0 0 0 0 0 0.3 0"/>
<feBlend mode="normal" in2="BackgroundImageFix" result="effect1_dropShadow_247_1638"/>
<feBlend mode="normal" in="SourceGraphic" in2="effect1_dropShadow_247_1638" result="shape"/>
</filter>
</defs>
</svg>
