<svg width="24" height="24" viewBox="0 0 24 24" fill="none" xmlns="http://www.w3.org/2000/svg">
<path fill-rule="evenodd" clip-rule="evenodd" d="M19.2745 4.00026C19.2493 4.00106 19.2242 4.0032 19.1992 4.00669H12.7065C12.4522 4.00309 12.2157 4.13671 12.0874 4.35637C11.9592 4.57604 11.9592 4.84772 12.0874 5.06738C12.2157 5.28704 12.4522 5.42066 12.7065 5.41706H17.5859L5.41961 17.5833V12.704C5.42234 12.5133 5.34773 12.3296 5.21279 12.1949C5.07785 12.0601 4.89409 11.9857 4.7034 11.9887C4.3143 11.9948 4.00365 12.3149 4.00923 12.704V19.181C3.97267 19.4049 4.04599 19.6327 4.20629 19.7931C4.36659 19.9536 4.59428 20.0272 4.81818 19.9909H11.2962C11.5505 19.9945 11.787 19.8609 11.9152 19.6412C12.0434 19.4215 12.0434 19.1499 11.9152 18.9302C11.787 18.7105 11.5505 18.5769 11.2962 18.5805H6.41678L18.5831 6.41424V11.2936C18.5795 11.5479 18.7131 11.7845 18.9327 11.9127C19.1524 12.0409 19.4241 12.0409 19.6438 11.9127C19.8634 11.7845 19.997 11.5479 19.9934 11.2936V4.7936C20.0192 4.58942 19.9545 4.38416 19.8163 4.23166C19.6781 4.07917 19.4802 3.99464 19.2745 4.00026Z" fill="#090710"/>
</svg>
