<svg width="40" height="40" viewBox="0 0 40 40" fill="none" xmlns="http://www.w3.org/2000/svg">
<path d="M39.9998 25.4047V28.1718C39.9998 28.631 39.9798 29.0941 39.9397 29.5533C39.3786 35.8715 34.9898 40 28.6572 40H11.3425C8.13611 40 5.4307 38.9593 3.48682 37.0725C2.72529 36.3727 2.08401 35.5506 1.58301 34.6082C2.24433 33.8042 2.98581 32.9239 3.70726 32.0417C4.9297 30.5779 6.11207 29.1322 6.85355 28.1918C7.95575 26.8284 10.8616 23.2392 14.8896 24.9235C15.7113 25.2644 16.4327 25.7456 17.094 26.1667C18.7173 27.2494 19.3986 27.5702 20.5409 26.9487C21.8034 26.2669 22.6251 24.9235 23.4868 23.5199C23.9477 22.776 24.4087 22.0562 24.9097 21.3945C27.094 18.5472 30.4608 17.7852 33.2664 19.4696C34.6692 20.3117 35.8716 21.3744 36.9938 22.4552C37.2343 22.6958 37.4748 22.9184 37.6952 23.1389C37.9958 23.4397 38.9978 24.4423 39.9998 25.4047" fill="#191A1C"/>
<path opacity="0.4" d="M28.6774 0H11.3427C4.5491 0 0 4.75214 0 11.8282V28.172C0 30.6363 0.561122 32.8239 1.58317 34.6084C2.24449 33.8044 2.98597 32.9241 3.70741 32.0399C4.92986 30.5781 6.11222 29.1324 6.85371 28.192C7.95591 26.8285 10.8617 23.2394 14.8898 24.9237C15.7114 25.2646 16.4329 25.7458 17.0942 26.1669C18.7174 27.2496 19.3988 27.5704 20.5411 26.9468C21.8036 26.2671 22.6253 24.9237 23.487 23.5181C23.9479 22.7762 24.4088 22.0564 24.9098 21.3947C27.0942 18.5474 30.4609 17.7854 33.2665 19.4697C34.6693 20.3119 35.8717 21.3746 36.994 22.4554C37.2345 22.696 37.475 22.9186 37.6954 23.1391C37.996 23.4379 38.998 24.4404 40 25.4049V11.8282C40 4.75214 35.4509 0 28.6774 0" fill="#191A1C"/>
<path d="M18.9088 13.5934C18.9088 16.4106 16.5621 18.7566 13.7465 18.7566C10.9329 18.7566 8.58618 16.4106 8.58618 13.5934C8.58618 10.7782 10.9329 8.43018 13.7465 8.43018C16.5621 8.43018 18.9088 10.7782 18.9088 13.5934" fill="#191A1C"/>
</svg>
