<svg xmlns="http://www.w3.org/2000/svg" id="Layer_1" data-name="Layer 1" viewBox="0 0 1324.01 1050.35"><defs><style>.cls-1{fill:#1e3947;}.cls-2{fill:#4c986c;}</style></defs><path class="cls-1" d="M1227.4,836.35q-14.82-15.93-43.23-15.92h-12.52q-28.43,0-43.78,15.92t-15.37,44.36v20.48q0,28.44,15.37,44.36t43.78,15.92h12.52q28.42,0,43.23-15.92t14.78-44.36V880.71Q1242.18,852.29,1227.4,836.35Z"></path><path class="cls-1" d="M502.91,328.58C484.14,309.8,299.43,128.71,280.65,109.94A108.84,108.84,0,1,0,126.73,263.86c18.77,18.78,241.16,237.55,259.94,256.32-4.94,5-24.06,23.81-49.79,49.18,76-74.91,145.43-143.27,153.79-151.64,31.86-32.55,24.9-71.79,24.36-74.56A108.62,108.62,0,0,0,502.91,328.58Z"></path><path class="cls-1" d="M761.58,520.18c5-4.95,24.19-23.93,50-49.41-76.14,75-145.67,143.51-154,151.88-31.87,32.56-24.89,71.81-24.36,74.56a109.38,109.38,0,0,0,12.12,14.58c18.78,18.78,203.49,199.87,222.26,218.64a108.84,108.84,0,1,0,153.93-153.92C1002.75,757.73,780.36,539,761.58,520.18Z"></path><path class="cls-2" d="M534,393.12c-.26-2.23-.57-4.45-1-6.67-.19-1.06-.39-2.12-.61-3.18-.48-2.28-1-4.54-1.66-6.79-.24-.86-.44-1.73-.7-2.58q-1.38-4.59-3.17-9.06c-.2-.51-.45-1-.66-1.49q-1.56-3.72-3.4-7.34c-.49-.94-1-1.86-1.52-2.79-1.09-2-2.25-4-3.48-5.9-.59-.92-1.17-1.85-1.79-2.76-.32-.48-.7-.93-1-1.4.54,2.77,7.5,42-24.36,74.56-8.36,8.37-77.75,76.73-153.79,151.64-34.53,34-81,79.77-121.62,119.81-47,46.27-82.68,81.49-88.53,87.34A108.84,108.84,0,1,0,280.65,930.43c18.78-18.77,203.49-199.86,222.26-218.64a108.45,108.45,0,0,0,31.88-77V405.54c0-3.17-.18-6.34-.45-9.5C534.25,395.07,534.12,394.09,534,393.12Z"></path><path class="cls-2" d="M867.6,109.94C848.83,128.71,664.12,309.8,645.34,328.58a108.49,108.49,0,0,0-31.88,77V634.83c0,3.17.18,6.34.45,9.5.09,1,.22,1.94.33,2.91.26,2.23.57,4.46,1,6.68.19,1.06.38,2.12.6,3.18.48,2.28,1,4.55,1.66,6.8.24.85.44,1.72.7,2.57.93,3.06,2,6.09,3.17,9.07.2.49.45,1,.65,1.46,1,2.48,2.18,4.94,3.41,7.35.49.95,1,1.88,1.53,2.81,1.09,2,2.24,4,3.47,5.88.59.93,1.18,1.86,1.8,2.78.32.47.69.92,1,1.39-.53-2.75-7.51-42,24.36-74.56,8.37-8.37,77.9-76.88,154-151.88,34.89-34.39,81.89-80.67,122.76-120.93,46.26-45.58,81.36-80.19,87.15-86A108.84,108.84,0,1,0,867.6,109.94Z"></path></svg>