<svg width="20" height="19" viewBox="0 0 20 19" fill="none" xmlns="http://www.w3.org/2000/svg">
<path fill-rule="evenodd" clip-rule="evenodd" d="M18.0769 3.33333H1.66667C0.74359 3.33333 0 2.58974 0 1.66667C0 0.74359 0.74359 0 1.66667 0H18.0769C19 0 19.7436 0.74359 19.7436 1.66667C19.7436 2.58974 19 3.33333 18.0769 3.33333ZM19.7436 9.10256C19.7436 8.17949 19 7.4359 18.0769 7.4359H1.66667C0.74359 7.4359 0 8.17949 0 9.10256C0 10.0256 0.74359 10.7692 1.66667 10.7692H18.0769C19 10.7692 19.7436 10.0256 19.7436 9.10256ZM19.7436 16.5385C19.7436 15.6154 19 14.8718 18.0769 14.8718H1.66667C0.74359 14.8718 0 15.6154 0 16.5385C0 17.4615 0.74359 18.2051 1.66667 18.2051H18.0769C19 18.2051 19.7436 17.4615 19.7436 16.5385Z" fill="#242E42"/>
</svg>
