<svg width="42" height="42" viewBox="0 0 42 42" fill="none" xmlns="http://www.w3.org/2000/svg">
<rect width="42" height="42" fill="#FF0000" fill-opacity="0.01"/>
<path fill-rule="evenodd" clip-rule="evenodd" d="M36.8474 22.171L37.3682 22.8653C38.1596 23.9274 37.8199 25.4299 36.6402 26.0664L35.8694 26.4808C35.0369 26.9381 34.5852 27.862 34.7588 28.7878L34.9193 29.6315C35.1619 30.9231 34.1913 32.1345 32.8512 32.2091L31.9758 32.2577C31.0182 32.3118 30.1988 32.9576 29.9487 33.8629L29.7191 34.6935C29.3664 35.9646 27.9571 36.6459 26.714 36.1419L25.9021 35.8153C25.0211 35.4532 24.0001 35.6921 23.3692 36.3995L22.7925 37.0453C21.9114 38.0402 20.3436 38.0533 19.4476 37.0733L18.8653 36.4331C18.2195 35.7332 17.1985 35.5092 16.3175 35.8825L15.513 36.2222C14.2773 36.7392 12.8625 36.0859 12.4873 34.8204L12.2447 33.9898C11.9815 33.0846 11.1546 32.4518 10.1971 32.4107L9.32171 32.3771C7.97594 32.323 6.99041 31.1247 7.21253 29.8256L7.35812 28.9745C7.51677 28.0505 7.05947 27.1247 6.21207 26.6824L5.43559 26.2736C4.24848 25.6558 3.88824 24.1588 4.66472 23.0837L5.17055 22.3837C5.72491 21.6203 5.71184 20.5937 5.15001 19.8322L4.62925 19.1378C3.83784 18.0758 4.17755 16.5732 5.34973 15.933L6.12061 15.5186C6.95308 15.0632 7.40478 14.1374 7.23306 13.2116L7.07254 12.3679C6.82989 11.0763 7.80049 9.86492 9.14065 9.79026L10.0142 9.74173C10.9736 9.6876 11.7911 9.04178 12.0412 8.13652L12.2708 7.30591C12.6236 6.0348 14.0328 5.35352 15.2759 5.85748L16.0879 6.18413C16.9689 6.54437 17.9899 6.30732 18.6208 5.5999L19.1975 4.95222C20.0785 3.95922 21.6483 3.94616 22.5498 4.93168L23.1322 5.5719C23.778 6.27185 24.799 6.49584 25.68 6.12253L26.4844 5.78282C27.7201 5.26579 29.1349 5.91908 29.5101 7.18459L29.7527 8.01519C30.0159 8.92046 30.8428 9.55321 31.8003 9.59427L32.6757 9.62787C34.0215 9.682 35.007 10.8803 34.7849 12.1794L34.6393 13.0306C34.4807 13.9545 34.938 14.8803 35.7854 15.3227L36.5618 15.7314C37.749 16.3492 38.1092 17.8462 37.3327 18.9213L36.8269 19.6213C36.2725 20.3828 36.2856 21.4094 36.8474 22.171ZM22.7309 28.0897C23.6828 27.8321 24.5022 27.3282 25.1331 26.5797C26.8746 24.506 26.2082 21.4635 23.7575 20.1103C23.097 19.7515 22.4056 19.4724 21.7095 19.1914C21.5871 19.142 21.4646 19.0926 21.3422 19.0426C20.8699 18.8523 20.4126 18.6283 20.0169 18.3147C19.2255 17.7025 19.3786 16.702 20.3006 16.3082C20.5582 16.1981 20.8363 16.157 21.1144 16.1439C22.1821 16.0898 23.1956 16.2802 24.1606 16.7356C24.6459 16.9671 24.8064 16.8924 24.967 16.4052C25.102 16.0032 25.22 15.5932 25.3378 15.1841C25.3715 15.0671 25.4052 14.9502 25.4392 14.8336C25.5437 14.479 25.4112 14.2475 25.0715 14.0982C24.4537 13.8313 23.8153 13.6353 23.149 13.5327C22.281 13.405 22.281 13.3965 22.2737 12.5614L22.2736 12.5397C22.2698 11.938 22.268 11.6351 22.1156 11.4827C21.9613 11.3283 21.6524 11.3283 21.0304 11.3283C20.97 11.3283 20.9098 11.3274 20.8497 11.3266C20.7296 11.325 20.6098 11.3233 20.4892 11.3283C19.9049 11.3413 19.8079 11.4421 19.7967 12.0152V12.7842C19.7893 13.5328 19.7892 13.5329 19.0834 13.7845C19.0713 13.7888 19.0589 13.7932 19.0463 13.7977C17.2545 14.4379 16.1439 15.6344 16.0263 17.5532C15.9218 19.2536 16.8233 20.3959 18.2475 21.234C18.8536 21.5927 19.5074 21.8499 20.1614 22.1072C20.4499 22.2207 20.7384 22.3343 21.023 22.4565C21.3832 22.6115 21.7304 22.7962 22.0365 23.0408C22.9324 23.7631 22.7663 24.967 21.7043 25.4224C21.135 25.667 20.5302 25.7286 19.9199 25.6539C18.9698 25.5382 18.0589 25.2937 17.2059 24.8588C16.7057 24.6068 16.5601 24.6758 16.3865 25.2059C16.271 25.5553 16.1707 25.9113 16.0708 26.2663C16.0399 26.3759 16.009 26.4854 15.9778 26.5946C15.8042 27.2218 15.8658 27.3711 16.4705 27.6567C17.2414 28.0244 18.0664 28.2148 18.9138 28.3436C19.5727 28.4462 19.5932 28.4724 19.6007 29.1462C19.6007 29.4448 19.6007 29.7509 19.6082 30.057C19.6156 30.4378 19.8023 30.6618 20.2054 30.6693C20.6627 30.6823 21.1219 30.6823 21.5792 30.6693C21.9544 30.6618 22.1485 30.4639 22.1485 30.0906C22.1485 29.952 22.1508 29.8128 22.1531 29.6734C22.1576 29.3943 22.1622 29.1146 22.1485 28.8382C22.1261 28.4164 22.3146 28.198 22.7309 28.0897Z" fill="black"/>
<mask id="mask0_0_969" style="mask-type:alpha" maskUnits="userSpaceOnUse" x="4" y="4" width="34" height="34">
<path fill-rule="evenodd" clip-rule="evenodd" d="M36.8474 22.171L37.3682 22.8653C38.1596 23.9274 37.8199 25.4299 36.6402 26.0664L35.8694 26.4808C35.0369 26.9381 34.5852 27.862 34.7588 28.7878L34.9193 29.6315C35.1619 30.9231 34.1913 32.1345 32.8512 32.2091L31.9758 32.2577C31.0182 32.3118 30.1988 32.9576 29.9487 33.8629L29.7191 34.6935C29.3664 35.9646 27.9571 36.6459 26.714 36.1419L25.9021 35.8153C25.0211 35.4532 24.0001 35.6921 23.3692 36.3995L22.7925 37.0453C21.9114 38.0402 20.3436 38.0533 19.4476 37.0733L18.8653 36.4331C18.2195 35.7332 17.1985 35.5092 16.3175 35.8825L15.513 36.2222C14.2773 36.7392 12.8625 36.0859 12.4873 34.8204L12.2447 33.9898C11.9815 33.0846 11.1546 32.4518 10.1971 32.4107L9.32171 32.3771C7.97594 32.323 6.99041 31.1247 7.21253 29.8256L7.35812 28.9745C7.51677 28.0505 7.05947 27.1247 6.21207 26.6824L5.43559 26.2736C4.24848 25.6558 3.88824 24.1588 4.66472 23.0837L5.17055 22.3837C5.72491 21.6203 5.71184 20.5937 5.15001 19.8322L4.62925 19.1378C3.83784 18.0758 4.17755 16.5732 5.34973 15.933L6.12061 15.5186C6.95308 15.0632 7.40478 14.1374 7.23306 13.2116L7.07254 12.3679C6.82989 11.0763 7.80049 9.86492 9.14065 9.79026L10.0142 9.74173C10.9736 9.6876 11.7911 9.04178 12.0412 8.13652L12.2708 7.30591C12.6236 6.0348 14.0328 5.35352 15.2759 5.85748L16.0879 6.18413C16.9689 6.54437 17.9899 6.30732 18.6208 5.5999L19.1975 4.95222C20.0785 3.95922 21.6483 3.94616 22.5498 4.93168L23.1322 5.5719C23.778 6.27185 24.799 6.49584 25.68 6.12253L26.4844 5.78282C27.7201 5.26579 29.1349 5.91908 29.5101 7.18459L29.7527 8.01519C30.0159 8.92046 30.8428 9.55321 31.8003 9.59427L32.6757 9.62787C34.0215 9.682 35.007 10.8803 34.7849 12.1794L34.6393 13.0306C34.4807 13.9545 34.938 14.8803 35.7854 15.3227L36.5618 15.7314C37.749 16.3492 38.1092 17.8462 37.3327 18.9213L36.8269 19.6213C36.2725 20.3828 36.2856 21.4094 36.8474 22.171ZM22.7309 28.0897C23.6828 27.8321 24.5022 27.3282 25.1331 26.5797C26.8746 24.506 26.2082 21.4635 23.7575 20.1103C23.097 19.7515 22.4056 19.4724 21.7095 19.1914C21.5871 19.142 21.4646 19.0926 21.3422 19.0426C20.8699 18.8523 20.4126 18.6283 20.0169 18.3147C19.2255 17.7025 19.3786 16.702 20.3006 16.3082C20.5582 16.1981 20.8363 16.157 21.1144 16.1439C22.1821 16.0898 23.1956 16.2802 24.1606 16.7356C24.6459 16.9671 24.8064 16.8924 24.967 16.4052C25.102 16.0032 25.22 15.5932 25.3378 15.1841C25.3715 15.0671 25.4052 14.9502 25.4392 14.8336C25.5437 14.479 25.4112 14.2475 25.0715 14.0982C24.4537 13.8313 23.8153 13.6353 23.149 13.5327C22.281 13.405 22.281 13.3965 22.2737 12.5614L22.2736 12.5397C22.2698 11.938 22.268 11.6351 22.1156 11.4827C21.9613 11.3283 21.6524 11.3283 21.0304 11.3283C20.97 11.3283 20.9098 11.3274 20.8497 11.3266C20.7296 11.325 20.6098 11.3233 20.4892 11.3283C19.9049 11.3413 19.8079 11.4421 19.7967 12.0152V12.7842C19.7893 13.5328 19.7892 13.5329 19.0834 13.7845C19.0713 13.7888 19.0589 13.7932 19.0463 13.7977C17.2545 14.4379 16.1439 15.6344 16.0263 17.5532C15.9218 19.2536 16.8233 20.3959 18.2475 21.234C18.8536 21.5927 19.5074 21.8499 20.1614 22.1072C20.4499 22.2207 20.7384 22.3343 21.023 22.4565C21.3832 22.6115 21.7304 22.7962 22.0365 23.0408C22.9324 23.7631 22.7663 24.967 21.7043 25.4224C21.135 25.667 20.5302 25.7286 19.9199 25.6539C18.9698 25.5382 18.0589 25.2937 17.2059 24.8588C16.7057 24.6068 16.5601 24.6758 16.3865 25.2059C16.271 25.5553 16.1707 25.9113 16.0708 26.2663C16.0399 26.3759 16.009 26.4854 15.9778 26.5946C15.8042 27.2218 15.8658 27.3711 16.4705 27.6567C17.2414 28.0244 18.0664 28.2148 18.9138 28.3436C19.5727 28.4462 19.5932 28.4724 19.6007 29.1462C19.6007 29.4448 19.6007 29.7509 19.6082 30.057C19.6156 30.4378 19.8023 30.6618 20.2054 30.6693C20.6627 30.6823 21.1219 30.6823 21.5792 30.6693C21.9544 30.6618 22.1485 30.4639 22.1485 30.0906C22.1485 29.952 22.1508 29.8128 22.1531 29.6734C22.1576 29.3943 22.1622 29.1146 22.1485 28.8382C22.1261 28.4164 22.3146 28.198 22.7309 28.0897Z" fill="white"/>
</mask>
<g mask="url(#mask0_0_969)">
<rect width="42" height="42" fill="#FFD428"/>
</g>
</svg>
