<svg width="43" height="52" viewBox="0 0 43 52" fill="none" xmlns="http://www.w3.org/2000/svg">
<g filter="url(#filter0_d_0_465)">
<path fill-rule="evenodd" clip-rule="evenodd" d="M21.0196 44.6667C22.6451 44.6667 30.3854 34.9462 32.294 31.8498C35.2279 27.09 37.0392 24.2742 37.0392 19.0196C37.0392 10.1722 29.867 3 21.0196 3C12.1722 3 5 10.1722 5 19.0196C5 24.3015 6.67841 27.0986 9.60251 31.8498C11.6406 35.1613 19.3942 44.6667 21.0196 44.6667Z" fill="#FC4974"/>
<path fill-rule="evenodd" clip-rule="evenodd" d="M21.0196 44.6667C22.6451 44.6667 30.3854 34.9462 32.294 31.8498C35.2279 27.09 37.0392 24.2742 37.0392 19.0196C37.0392 10.1722 29.867 3 21.0196 3C12.1722 3 5 10.1722 5 19.0196C5 24.3015 6.67841 27.0986 9.60251 31.8498C11.6406 35.1613 19.3942 44.6667 21.0196 44.6667Z" stroke="white" stroke-width="2"/>
</g>
<path fill-rule="evenodd" clip-rule="evenodd" d="M21.0098 27.0196C25.4335 27.0196 29.0196 23.4335 29.0196 19.0098C29.0196 14.5861 25.4335 11 21.0098 11C16.5861 11 13 14.5861 13 19.0098C13 23.4335 16.5861 27.0196 21.0098 27.0196Z" fill="white"/>
<defs>
<filter id="filter0_d_0_465" x="0" y="0" width="42.0391" height="51.6667" filterUnits="userSpaceOnUse" color-interpolation-filters="sRGB">
<feFlood flood-opacity="0" result="BackgroundImageFix"/>
<feColorMatrix in="SourceAlpha" type="matrix" values="0 0 0 0 0 0 0 0 0 0 0 0 0 0 0 0 0 0 127 0" result="hardAlpha"/>
<feOffset dy="2"/>
<feGaussianBlur stdDeviation="2"/>
<feColorMatrix type="matrix" values="0 0 0 0 0 0 0 0 0 0 0 0 0 0 0 0 0 0 0.3 0"/>
<feBlend mode="normal" in2="BackgroundImageFix" result="effect1_dropShadow_0_465"/>
<feBlend mode="normal" in="SourceGraphic" in2="effect1_dropShadow_0_465" result="shape"/>
</filter>
</defs>
</svg>
