<svg width="24" height="24" viewBox="0 0 24 24" fill="none" xmlns="http://www.w3.org/2000/svg">
<path fill-rule="evenodd" clip-rule="evenodd" d="M11.9901 5.00015C11.642 5.00559 11.3641 5.29195 11.3691 5.64005V11.3693H5.63985C5.41234 11.3661 5.20072 11.4856 5.08602 11.6821C4.97133 11.8786 4.97133 12.1217 5.08602 12.3182C5.20072 12.5147 5.41234 12.6342 5.63985 12.631H11.3691V18.3602C11.3659 18.5877 11.4854 18.7994 11.682 18.9141C11.8785 19.0287 12.1215 19.0287 12.318 18.9141C12.5146 18.7994 12.6341 18.5877 12.6309 18.3602V12.631H18.3601C18.5877 12.6342 18.7993 12.5147 18.914 12.3182C19.0287 12.1217 19.0287 11.8786 18.914 11.6821C18.7993 11.4856 18.5877 11.3661 18.3601 11.3693H12.6309V5.64005C12.6333 5.46946 12.5666 5.30514 12.4459 5.18458C12.3251 5.06402 12.1607 4.99748 11.9901 5.00015Z" fill="#090710"/>
</svg>
