<svg width="92" height="92" viewBox="0 0 92 92" fill="none" xmlns="http://www.w3.org/2000/svg">
<path d="M92 46C92 71.4051 71.4051 92 46 92C20.5949 92 0 71.4051 0 46C0 20.5949 20.5949 0 46 0C71.4051 0 92 20.5949 92 46ZM9.2 46C9.2 66.3241 25.6759 82.8 46 82.8C66.3241 82.8 82.8 66.3241 82.8 46C82.8 25.6759 66.3241 9.2 46 9.2C25.6759 9.2 9.2 25.6759 9.2 46Z" fill="#D9D9D9"/>
<path d="M92 46C92 39.9592 90.8102 33.9775 88.4985 28.3966C86.1867 22.8156 82.7984 17.7446 78.5269 13.4731C74.2554 9.20159 69.1844 5.81326 63.6034 3.50154C58.0225 1.18982 52.0408 -2.64052e-07 46 0L46 9.2C50.8326 9.2 55.618 10.1519 60.0827 12.0012C64.5475 13.8506 68.6043 16.5613 72.0215 19.9785C75.4387 23.3957 78.1494 27.4525 79.9988 31.9172C81.8481 36.382 82.8 41.1674 82.8 46H92Z" fill="#4C986C"/>
</svg>
