<svg width="24" height="24" viewBox="0 0 24 24" fill="none" xmlns="http://www.w3.org/2000/svg">
<g clip-path="url(#clip0_2294_14173)">
<path d="M9.41 16.87H5.045L4.295 19H2.51L6.245 8.56H8.225L11.96 19H10.16L9.41 16.87ZM8.93 15.475L7.235 10.63L5.525 15.475H8.93ZM13.014 14.83C13.014 14 13.184 13.265 13.524 12.625C13.874 11.985 14.344 11.49 14.934 11.14C15.534 10.78 16.194 10.6 16.914 10.6C17.564 10.6 18.129 10.73 18.609 10.99C19.099 11.24 19.489 11.555 19.779 11.935V10.735H21.504V19H19.779V17.77C19.489 18.16 19.094 18.485 18.594 18.745C18.094 19.005 17.524 19.135 16.884 19.135C16.174 19.135 15.524 18.955 14.934 18.595C14.344 18.225 13.874 17.715 13.524 17.065C13.184 16.405 13.014 15.66 13.014 14.83ZM19.779 14.86C19.779 14.29 19.659 13.795 19.419 13.375C19.189 12.955 18.884 12.635 18.504 12.415C18.124 12.195 17.714 12.085 17.274 12.085C16.834 12.085 16.424 12.195 16.044 12.415C15.664 12.625 15.354 12.94 15.114 13.36C14.884 13.77 14.769 14.26 14.769 14.83C14.769 15.4 14.884 15.9 15.114 16.33C15.354 16.76 15.664 17.09 16.044 17.32C16.434 17.54 16.844 17.65 17.274 17.65C17.714 17.65 18.124 17.54 18.504 17.32C18.884 17.1 19.189 16.78 19.419 16.36C19.659 15.93 19.779 15.43 19.779 14.86Z" fill="#191A1C"/>
</g>
<defs>
<clipPath id="clip0_2294_14173">
<rect width="24" height="24" fill="white"/>
</clipPath>
</defs>
</svg>
